<?xml version="1.0" encoding="UTF-8" standalone="no"?>
<svg
   xmlns:dc="http://purl.org/dc/elements/1.1/"
   xmlns:cc="http://creativecommons.org/ns#"
   xmlns:rdf="http://www.w3.org/1999/02/22-rdf-syntax-ns#"
   xmlns:svg="http://www.w3.org/2000/svg"
   xmlns="http://www.w3.org/2000/svg"
   xmlns:xlink="http://www.w3.org/1999/xlink"
   xmlns:sodipodi="http://sodipodi.sourceforge.net/DTD/sodipodi-0.dtd"
   xmlns:inkscape="http://www.inkscape.org/namespaces/inkscape"
   version="1.1"
   id="Layer_1"
   x="0px"
   y="0px"
   width="151.44807"
   height="101.82783"
   viewBox="0 0 151.44807 101.82783"
   enable-background="new 0 0 182.108 117.066"
   xml:space="preserve"
   sodipodi:docname="openCFS_logo_ft.svg"
   inkscape:version="1.0.1 (3bc2e813f5, 2020-09-07)"
   inkscape:export-filename="/home/ftoth/openCFS/CFS/share/art/openCFS_logo_ft.png"
   inkscape:export-xdpi="600"
   inkscape:export-ydpi="600"><sodipodi:namedview
   pagecolor="#ffffff"
   bordercolor="#666666"
   borderopacity="1"
   objecttolerance="10"
   gridtolerance="10"
   guidetolerance="10"
   inkscape:pageopacity="0"
   inkscape:pageshadow="2"
   inkscape:window-width="1920"
   inkscape:window-height="1043"
   id="namedview26"
   showgrid="false"
   inkscape:zoom="5.5136479"
   inkscape:cx="107.93103"
   inkscape:cy="40.801542"
   inkscape:window-x="0"
   inkscape:window-y="0"
   inkscape:window-maximized="1"
   inkscape:current-layer="Layer_1"
   inkscape:document-rotation="0"
   inkscape:object-paths="true"
   inkscape:snap-intersection-paths="true"
   inkscape:snap-smooth-nodes="true"
   inkscape:snap-midpoints="true" />
<metadata
   id="metadata129">
  <rdf:RDF>
    <cc:Work
   rdf:about="">
      <dc:format>image/svg+xml</dc:format>
      <dc:type
   rdf:resource="http://purl.org/dc/dcmitype/StillImage" />
      <dc:title />
    </cc:Work>
  </rdf:RDF>
</metadata>
<defs
   id="defs127"><linearGradient
   id="linearGradient1186">
<stop
   id="stop1184"
   offset="0"
   style="stop-color:#ffbb5c;stop-opacity:1" />
  <stop
   id="stop1182"
   offset="1"
   style="stop-color:#fe6848;stop-opacity:1;" />
  </linearGradient><linearGradient
   id="orange">
  <stop
   style="stop-color:#ffbe4a;stop-opacity:1;"
   offset="0"
   id="stop1598" />
  <stop
   style="stop-color:#ffbe4a;stop-opacity:0;"
   offset="1"
   id="stop1600" />
</linearGradient>
<linearGradient
   id="red">
  <stop
   id="stop1564"
   offset="0"
   style="stop-color:#fe6848;stop-opacity:1;" />
  <stop
   id="stop1566"
   offset="1"
   style="stop-color:#fe6848;stop-opacity:0;" />
</linearGradient>

		<linearGradient
   xlink:href="#orange"
   id="linearGradient1562"
   x1="99.833817"
   y1="-22.124479"
   x2="216.50819"
   y2="-22.124479"
   gradientUnits="userSpaceOnUse"
   gradientTransform="matrix(-1,0,0,1,303.68833,-7.6294247)" />
<linearGradient
   xlink:href="#orange"
   id="linearGradient1604"
   x1="145.51732"
   y1="3.9272156"
   x2="262.19168"
   y2="3.9272156"
   gradientUnits="userSpaceOnUse"
   gradientTransform="translate(-58.337182,-33.681119)" />
<linearGradient
   xlink:href="#red"
   id="linearGradient1562-7"
   x1="99.833817"
   y1="-22.124479"
   x2="216.50819"
   y2="-22.124479"
   gradientUnits="userSpaceOnUse"
   gradientTransform="matrix(-1,0,0,1,229.15089,155.80733)" /><linearGradient
   xlink:href="#orange"
   id="linearGradient1562-6"
   x1="99.833817"
   y1="-22.124479"
   x2="216.50819"
   y2="-22.124479"
   gradientUnits="userSpaceOnUse"
   gradientTransform="translate(-87.191115,155.80733)" /><mask
   maskUnits="userSpaceOnUse"
   id="mask979"><path
     style="opacity:1;fill:#ffffff;fill-opacity:1;fill-rule:nonzero;stroke:none;stroke-width:0.4;stroke-miterlimit:4;stroke-dasharray:none;stroke-dashoffset:0;stroke-opacity:1"
     d="m 70.136887,105.46558 c 0.48374,-7.1e-4 1.34706,0.32308 1.89766,0.8062 0.60316,0.52925 1.08639,1.35036 1.2149,2.06472 0.19092,1.0612 0.74834,1.57957 5.30541,4.93355 4.55267,3.35074 5.24406,3.85713 5.63273,4.06661 0.50663,-0.37551 1.41878,-0.69754 1.9077,-0.56957 0.48893,0.12796 1.1796,0.27739 1.69082,1.26898 0.4409,1.22685 0.37548,1.78745 0.3715,1.98724 -0.003,0.13573 1.20181,1.01318 6.48819,4.5985 3.187558,2.16187 5.923033,3.98019 6.078523,4.04149 0.1555,0.0613 2.16789,-1.62253 4.47205,-3.74204 3.90876,-3.59553 4.69191,-4.09926 4.66884,-4.16713 -0.62888,-1.85052 -0.15482,-2.65244 0.16667,-3.16409 0.32148,-0.51165 1.10424,-1.15783 1.73902,-1.43441 0.89588,-0.39035 1.3946,-0.41909 2.22899,-0.13193 0.59122,0.20347 1.39755,0.72927 1.79324,1.16848 0.39569,0.43921 0.80322,1.33732 0.90565,1.99561 0.12008,0.77156 -0.003,1.57804 -0.3474,2.27203 -0.29362,0.5921 -0.9887,1.32222 -1.54624,1.62288 -0.57433,0.3097 -2.14347,0.41999 -3.1708,-0.0314 -0.75565,0.74987 -0.60789,0.57416 -4.49414,4.08546 -2.43068,2.19616 -3.51451,3.20407 -4.12665,3.88025 0.12074,0.21236 2.48067,3.50101 4.9801,7.01711 2.49942,3.5161 4.91485,6.64491 5.36766,6.95429 0.56569,0.38651 0.82332,0.87511 0.82332,1.56006 0,0.54826 -0.23373,1.2384 -0.51808,1.53493 -0.28436,0.29652 -0.93204,0.54026 -1.43981,0.54026 -0.50779,0 -1.07009,-0.19341 -1.25106,-0.42928 -0.18096,-0.23587 -0.43683,-0.79327 -0.56828,-1.23967 -0.13146,-0.4464 -2.16904,-3.5346 -4.52828,-6.86215 -2.35922,-3.32756 -4.7354,-6.75238 -4.97006,-7.01712 -0.52837,0.32655 -1.012405,0.80819 -5.482113,5.08851 -4.39248,4.20636 -5.08811,4.91327 -5.38172,5.24975 0.53535,1.1542 0.56149,1.75471 0.6667,2.35579 0.10521,0.60107 0.0228,1.60289 -0.18475,2.22386 l -0.37753,1.12869 3.21699,3.16408 c 1.9915,1.9594 3.49117,3.17037 3.9399,3.18084 0.398628,0.009 1.087208,0.18836 1.528158,0.39787 0.44095,0.20951 0.9658,0.75892 1.166705,1.21873 0.20091,0.45981 0.36547,1.1477 0.36547,1.53074 0,0.38302 -0.432925,1.14878 -0.961875,1.70036 -0.57983,0.60457 -1.30903,1.00304 -1.8354,1.00304 -0.526368,0 -1.255638,-0.39847 -1.835408,-1.00304 -0.52894,-0.55158 -0.96189,-1.36622 -0.96189,-1.81134 0,-0.58386 -0.91331,-1.6958 -3.28123,-3.98914 -2.83423,-2.74496 -3.02989,-2.90638 -3.2692,-3.06358 -0.35427,0.19772 -1.96882,0.60309 -2.78323,0.60309 -0.81441,0 -1.87814,-0.15726 -2.36354,-0.34971 -0.4854,-0.19245 -1.27067,-0.78412 -1.74705,-1.31505 l -0.8675,-0.96535 -3.78327,1.08261 c -2.08097,0.59579 -5.30009,1.51591 -7.15487,2.04378 -2.38272,0.67813 -3.37362,1.11219 -3.37362,1.47839 0,0.28507 -0.29791,1.02209 -0.66267,1.63754 -0.36477,0.61544 -1.19915,1.38285 -1.85348,1.70664 -0.76909,0.38058 -1.59254,0.5208 -2.33141,0.39577 -0.62863,-0.10636 -1.49705,-0.43443 -1.92778,-0.72873 -0.43072,-0.2943 -1.04046,-0.94564 -1.35547,-1.44697 -0.31501,-0.50134 -0.5836,-1.58373 -0.59841,-2.40605 -0.0266,-1.47554 -0.0656,-1.52357 -2.91979,-3.69179 l -2.89166,-2.19664 -1.36551,0.74757 c -1.02087,0.55968 -1.93911,0.74967 -3.63668,0.74967 h -2.27116 l -2.41776,3.77135 c -1.94626,3.03619 -2.41776,4.02545 -2.41776,5.07595 0,0.92793 -0.23296,1.5475 -0.80726,2.14638 -0.49726,0.51853 -1.18555,0.84181 -1.79122,0.8418 -0.56054,0 -1.37295,-0.34904 -1.88963,-0.81248 -0.69045,-0.61932 -0.90766,-1.12025 -0.90766,-2.10241 0,-0.98216 0.21721,-1.48519 0.90766,-2.10451 0.49867,-0.44729 1.15733,-0.81675 1.46391,-0.82086 0.34351,-0.005 1.52722,-1.5411 3.08645,-4.00589 l 2.53021,-3.99961 -0.60444,-0.88577 c -0.33239,-0.48679 -0.77464,-1.54719 -0.98397,-2.35789 -0.20934,-0.81069 -0.33604,-1.80196 -0.28113,-2.20083 0.0877,-0.6372 -0.55357,-1.00911 -5.28935,-3.07195 -4.10542,-1.78826 -5.4962,-2.25651 -5.83153,-1.9663 -0.24215,0.20956 -0.9625,0.39576 -1.60046,0.41462 -0.69655,0.0206 -1.520241,-0.24689 -2.064327,-0.668 -0.498303,-0.38568 -1.032121,-1.22552 -1.184781,-1.86788 -0.170487,-0.71733 -0.143688,-1.52557 0.06828,-2.09403 0.189827,-0.50905 0.740445,-1.1948 1.222935,-1.52446 0.482479,-0.32966 1.408713,-0.58465 2.060313,-0.56539 0.88545,0.0262 1.41552,0.3044 2.09847,1.10146 0.50259,0.58656 0.91369,1.2771 0.91369,1.53493 0,0.2795 2.07824,1.38737 5.14476,2.74109 2.82877,1.24878 5.32296,2.26994 5.54236,2.26994 0.2194,0 0.67943,-0.33096 1.02414,-0.73501 0.34471,-0.40404 1.22002,-1.01871 1.94384,-1.36531 0.72382,-0.3466 1.90881,-0.62607 2.63262,-0.62193 0.72382,0.004 1.9068,0.22784 2.63062,0.49838 l 1.31731,0.4921 3.69492,-3.85093 c 3.66084,-3.81553 3.09671,-3.29092 3.86158,-4.0017 l -0.57633,-2.46887 -6.54842,-3.41746 c -6.17295,-3.22162 -6.58938,-3.38767 -7.26533,-2.89396 -0.39434,0.28803 -1.28916,0.52351 -1.99003,0.52351 -0.70086,0 -1.69635,-0.25889 -2.21092,-0.57586 -0.51457,-0.31697 -1.18836,-1.06719 -1.49804,-1.66685 -0.40322,-0.78077 -0.50827,-1.51747 -0.36949,-2.59661 0.14059,-1.09333 0.46982,-1.76443 1.19883,-2.44373 0.55264,-0.51496 1.4042,-1.0409 1.89164,-1.16848 0.50638,-0.13253 1.44589,-0.0242 2.19285,0.25129 0.719,0.26513 1.59464,0.88714 1.94585,1.38206 0.35121,0.49492 0.73657,1.40228 0.85746,2.01865 0.20691,1.055 0.59653,1.32365 6.64281,4.57756 l 6.92594,3.90538 1.00807,-0.82505 c 0.65352,-0.32339 0.82132,-0.45194 1.69484,-0.41253 0.14775,0.007 0.96945,-1.94465 2.56837,-5.44658 1.27079,-2.78329 2.48206,-5.59282 2.47398,-5.87586 -0.40283,-0.79429 -0.37168,-0.7261 -0.46387,-1.46164 -0.11611,-0.61085 -0.0574,-1.36693 0.0582,-1.84694 0.11553,-0.48001 0.68788,-1.17666 1.27113,-1.54749 0.58325,-0.37084 1.43801,-0.60447 1.92175,-0.60518 z m 1.96794,6.18368 c -1.03692,0.66382 -1.71641,0.47943 -2.02015,0.55283 -0.0652,0.0158 -0.55166,1.26233 -2.46595,5.56385 -1.89727,4.26327 -2.28641,5.41356 -1.99807,5.8968 0.19703,0.33022 0.43393,0.59757 0.52613,0.59262 0.0922,-0.005 3.61841,-0.9166 7.83762,-2.02494 4.21923,-1.10833 7.76488,-2.11031 7.87779,-2.22805 -0.0306,-0.20503 -0.0324,-0.20903 0.0181,-0.51304 -0.26066,-0.2666 -7.2441,-5.92146 -9.77545,-7.84007 z m 11.38193,11.48788 c -0.23614,-0.0945 -4.16651,0.7959 -8.73324,1.97886 -4.56673,1.18297 -8.38867,2.23939 -8.49428,2.34951 -0.1056,0.11012 0.29187,0.63133 0.88357,1.158 0.59169,0.52668 4.19373,3.67341 8.0043,6.99199 6.62644,5.77088 6.96736,6.01715 7.84767,5.67065 l 0.92172,-0.36227 v -8.80752 c 0,-6.92832 -0.0919,-8.84408 -0.42974,-8.97922 z m 3.63668,0.10471 c -0.13572,-0.003 -0.24699,3.99457 -0.24699,8.88499 0,6.80593 0.0969,8.92494 0.41166,9.03785 0.22619,0.0811 0.87091,-0.2534 1.43378,-0.74338 0.56286,-0.48998 3.03954,-2.81576 5.5022,-5.17017 l 4.476068,-4.28021 -5.664858,-3.8614 c -3.11602,-2.1237 -5.77615,-3.86422 -5.91186,-3.86768 z m -23.1675,7.09459 c -0.35161,0.1407 -0.43977,2.003 -0.43977,9.29333 v 9.11533 l 1.0663,0.92557 c 0.58547,0.50969 1.21406,0.87186 1.39764,0.80411 0.18359,-0.0678 3.28097,-0.96798 6.88378,-2.0019 3.60282,-1.03393 6.93448,-1.99543 6.95608,-2.20083 0.0655,-0.62289 0.274,-1.72088 0.68075,-2.09195 -0.68599,-0.52947 -0.79074,-0.6186 -8.23725,-7.13437 -4.47673,-3.91718 -8.05736,-6.8094 -8.30753,-6.70929 z m -3.43385,0.1026 c -0.11855,0 -1.92725,1.70381 -4.01822,3.78602 l -3.80134,3.78601 0.51006,1.27318 c 0.3577,0.89272 0.46204,1.92104 0.34539,3.43631 l -0.16667,2.16314 2.84147,2.19664 c 2.03755,1.57498 3.02841,2.14209 3.50012,1.9998 0.36191,-0.10916 0.67922,-0.21917 0.70485,-0.2429 0.0256,-0.0237 0.10316,-4.17238 0.17269,-9.22004 0.0695,-5.04766 0.0302,-9.17816 -0.0884,-9.17816 z"
     id="path981" /></mask><linearGradient
   inkscape:collect="always"
   xlink:href="#red"
   id="linearGradient1056"
   gradientUnits="userSpaceOnUse"
   gradientTransform="matrix(-1,0,0,1,229.15089,155.80733)"
   x1="99.833817"
   y1="-22.124479"
   x2="216.50819"
   y2="-22.124479" />
	


	

<mask
   maskUnits="userSpaceOnUse"
   id="mask979-7"><path
     style="opacity:1;fill:#ffffff;fill-opacity:1;fill-rule:nonzero;stroke:none;stroke-width:0.4;stroke-miterlimit:4;stroke-dasharray:none;stroke-dashoffset:0;stroke-opacity:1"
     d="m 70.136887,105.46558 c 0.48374,-7.1e-4 1.34706,0.32308 1.89766,0.8062 0.60316,0.52925 1.08639,1.35036 1.2149,2.06472 0.19092,1.0612 0.74834,1.57957 5.30541,4.93355 4.55267,3.35074 5.24406,3.85713 5.63273,4.06661 0.50663,-0.37551 1.41878,-0.69754 1.9077,-0.56957 0.48893,0.12796 1.1796,0.27739 1.69082,1.26898 0.4409,1.22685 0.37548,1.78745 0.3715,1.98724 -0.003,0.13573 1.20181,1.01318 6.48819,4.5985 3.187558,2.16187 5.923033,3.98019 6.078523,4.04149 0.1555,0.0613 2.16789,-1.62253 4.47205,-3.74204 3.90876,-3.59553 4.69191,-4.09926 4.66884,-4.16713 -0.62888,-1.85052 -0.15482,-2.65244 0.16667,-3.16409 0.32148,-0.51165 1.10424,-1.15783 1.73902,-1.43441 0.89588,-0.39035 1.3946,-0.41909 2.22899,-0.13193 0.59122,0.20347 1.39755,0.72927 1.79324,1.16848 0.39569,0.43921 0.80322,1.33732 0.90565,1.99561 0.12008,0.77156 -0.003,1.57804 -0.3474,2.27203 -0.29362,0.5921 -0.9887,1.32222 -1.54624,1.62288 -0.57433,0.3097 -2.14347,0.41999 -3.1708,-0.0314 -0.75565,0.74987 -0.60789,0.57416 -4.49414,4.08546 -2.43068,2.19616 -3.51451,3.20407 -4.12665,3.88025 0.12074,0.21236 2.48067,3.50101 4.9801,7.01711 2.49942,3.5161 4.91485,6.64491 5.36766,6.95429 0.56569,0.38651 0.82332,0.87511 0.82332,1.56006 0,0.54826 -0.23373,1.2384 -0.51808,1.53493 -0.28436,0.29652 -0.93204,0.54026 -1.43981,0.54026 -0.50779,0 -1.07009,-0.19341 -1.25106,-0.42928 -0.18096,-0.23587 -0.43683,-0.79327 -0.56828,-1.23967 -0.13146,-0.4464 -2.16904,-3.5346 -4.52828,-6.86215 -2.35922,-3.32756 -4.7354,-6.75238 -4.97006,-7.01712 -0.52837,0.32655 -1.012405,0.80819 -5.482113,5.08851 -4.39248,4.20636 -5.08811,4.91327 -5.38172,5.24975 0.53535,1.1542 0.56149,1.75471 0.6667,2.35579 0.10521,0.60107 0.0228,1.60289 -0.18475,2.22386 l -0.37753,1.12869 3.21699,3.16408 c 1.9915,1.9594 3.49117,3.17037 3.9399,3.18084 0.398628,0.009 1.087208,0.18836 1.528158,0.39787 0.44095,0.20951 0.9658,0.75892 1.166705,1.21873 0.20091,0.45981 0.36547,1.1477 0.36547,1.53074 0,0.38302 -0.432925,1.14878 -0.961875,1.70036 -0.57983,0.60457 -1.30903,1.00304 -1.8354,1.00304 -0.526368,0 -1.255638,-0.39847 -1.835408,-1.00304 -0.52894,-0.55158 -0.96189,-1.36622 -0.96189,-1.81134 0,-0.58386 -0.91331,-1.6958 -3.28123,-3.98914 -2.83423,-2.74496 -3.02989,-2.90638 -3.2692,-3.06358 -0.35427,0.19772 -1.96882,0.60309 -2.78323,0.60309 -0.81441,0 -1.87814,-0.15726 -2.36354,-0.34971 -0.4854,-0.19245 -1.27067,-0.78412 -1.74705,-1.31505 l -0.8675,-0.96535 -3.78327,1.08261 c -2.08097,0.59579 -5.30009,1.51591 -7.15487,2.04378 -2.38272,0.67813 -3.37362,1.11219 -3.37362,1.47839 0,0.28507 -0.29791,1.02209 -0.66267,1.63754 -0.36477,0.61544 -1.19915,1.38285 -1.85348,1.70664 -0.76909,0.38058 -1.59254,0.5208 -2.33141,0.39577 -0.62863,-0.10636 -1.49705,-0.43443 -1.92778,-0.72873 -0.43072,-0.2943 -1.04046,-0.94564 -1.35547,-1.44697 -0.31501,-0.50134 -0.5836,-1.58373 -0.59841,-2.40605 -0.0266,-1.47554 -0.0656,-1.52357 -2.91979,-3.69179 l -2.89166,-2.19664 -1.36551,0.74757 c -1.02087,0.55968 -1.93911,0.74967 -3.63668,0.74967 h -2.27116 l -2.41776,3.77135 c -1.94626,3.03619 -2.41776,4.02545 -2.41776,5.07595 0,0.92793 -0.23296,1.5475 -0.80726,2.14638 -0.49726,0.51853 -1.18555,0.84181 -1.79122,0.8418 -0.56054,0 -1.37295,-0.34904 -1.88963,-0.81248 -0.69045,-0.61932 -0.90766,-1.12025 -0.90766,-2.10241 0,-0.98216 0.21721,-1.48519 0.90766,-2.10451 0.49867,-0.44729 1.15733,-0.81675 1.46391,-0.82086 0.34351,-0.005 1.52722,-1.5411 3.08645,-4.00589 l 2.53021,-3.99961 -0.60444,-0.88577 c -0.33239,-0.48679 -0.77464,-1.54719 -0.98397,-2.35789 -0.20934,-0.81069 -0.33604,-1.80196 -0.28113,-2.20083 0.0877,-0.6372 -0.55357,-1.00911 -5.28935,-3.07195 -4.10542,-1.78826 -5.4962,-2.25651 -5.83153,-1.9663 -0.24215,0.20956 -0.9625,0.39576 -1.60046,0.41462 -0.69655,0.0206 -1.520241,-0.24689 -2.064327,-0.668 -0.498303,-0.38568 -1.032121,-1.22552 -1.184781,-1.86788 -0.170487,-0.71733 -0.143688,-1.52557 0.06828,-2.09403 0.189827,-0.50905 0.740445,-1.1948 1.222935,-1.52446 0.482479,-0.32966 1.408713,-0.58465 2.060313,-0.56539 0.88545,0.0262 1.41552,0.3044 2.09847,1.10146 0.50259,0.58656 0.91369,1.2771 0.91369,1.53493 0,0.2795 2.07824,1.38737 5.14476,2.74109 2.82877,1.24878 5.32296,2.26994 5.54236,2.26994 0.2194,0 0.67943,-0.33096 1.02414,-0.73501 0.34471,-0.40404 1.22002,-1.01871 1.94384,-1.36531 0.72382,-0.3466 1.90881,-0.62607 2.63262,-0.62193 0.72382,0.004 1.9068,0.22784 2.63062,0.49838 l 1.31731,0.4921 3.69492,-3.85093 c 3.66084,-3.81553 3.09671,-3.29092 3.86158,-4.0017 l -0.57633,-2.46887 -6.54842,-3.41746 c -6.17295,-3.22162 -6.58938,-3.38767 -7.26533,-2.89396 -0.39434,0.28803 -1.28916,0.52351 -1.99003,0.52351 -0.70086,0 -1.69635,-0.25889 -2.21092,-0.57586 -0.51457,-0.31697 -1.18836,-1.06719 -1.49804,-1.66685 -0.40322,-0.78077 -0.50827,-1.51747 -0.36949,-2.59661 0.14059,-1.09333 0.46982,-1.76443 1.19883,-2.44373 0.55264,-0.51496 1.4042,-1.0409 1.89164,-1.16848 0.50638,-0.13253 1.44589,-0.0242 2.19285,0.25129 0.719,0.26513 1.59464,0.88714 1.94585,1.38206 0.35121,0.49492 0.73657,1.40228 0.85746,2.01865 0.20691,1.055 0.59653,1.32365 6.64281,4.57756 l 6.92594,3.90538 1.00807,-0.82505 c 0.65352,-0.32339 0.82132,-0.45194 1.69484,-0.41253 0.14775,0.007 0.96945,-1.94465 2.56837,-5.44658 1.27079,-2.78329 2.48206,-5.59282 2.47398,-5.87586 -0.40283,-0.79429 -0.37168,-0.7261 -0.46387,-1.46164 -0.11611,-0.61085 -0.0574,-1.36693 0.0582,-1.84694 0.11553,-0.48001 0.68788,-1.17666 1.27113,-1.54749 0.58325,-0.37084 1.43801,-0.60447 1.92175,-0.60518 z m 1.96794,6.18368 c -1.03692,0.66382 -1.71641,0.47943 -2.02015,0.55283 -0.0652,0.0158 -0.55166,1.26233 -2.46595,5.56385 -1.89727,4.26327 -2.28641,5.41356 -1.99807,5.8968 0.19703,0.33022 0.43393,0.59757 0.52613,0.59262 0.0922,-0.005 3.61841,-0.9166 7.83762,-2.02494 4.21923,-1.10833 7.76488,-2.11031 7.87779,-2.22805 -0.0306,-0.20503 -0.0324,-0.20903 0.0181,-0.51304 -0.26066,-0.2666 -7.2441,-5.92146 -9.77545,-7.84007 z m 11.38193,11.48788 c -0.23614,-0.0945 -4.16651,0.7959 -8.73324,1.97886 -4.56673,1.18297 -8.38867,2.23939 -8.49428,2.34951 -0.1056,0.11012 0.29187,0.63133 0.88357,1.158 0.59169,0.52668 4.19373,3.67341 8.0043,6.99199 6.62644,5.77088 6.96736,6.01715 7.84767,5.67065 l 0.92172,-0.36227 v -8.80752 c 0,-6.92832 -0.0919,-8.84408 -0.42974,-8.97922 z m 3.63668,0.10471 c -0.13572,-0.003 -0.24699,3.99457 -0.24699,8.88499 0,6.80593 0.0969,8.92494 0.41166,9.03785 0.22619,0.0811 0.87091,-0.2534 1.43378,-0.74338 0.56286,-0.48998 3.03954,-2.81576 5.5022,-5.17017 l 4.476068,-4.28021 -5.664858,-3.8614 c -3.11602,-2.1237 -5.77615,-3.86422 -5.91186,-3.86768 z m -23.1675,7.09459 c -0.35161,0.1407 -0.43977,2.003 -0.43977,9.29333 v 9.11533 l 1.0663,0.92557 c 0.58547,0.50969 1.21406,0.87186 1.39764,0.80411 0.18359,-0.0678 3.28097,-0.96798 6.88378,-2.0019 3.60282,-1.03393 6.93448,-1.99543 6.95608,-2.20083 0.0655,-0.62289 0.274,-1.72088 0.68075,-2.09195 -0.68599,-0.52947 -0.79074,-0.6186 -8.23725,-7.13437 -4.47673,-3.91718 -8.05736,-6.8094 -8.30753,-6.70929 z m -3.43385,0.1026 c -0.11855,0 -1.92725,1.70381 -4.01822,3.78602 l -3.80134,3.78601 0.51006,1.27318 c 0.3577,0.89272 0.46204,1.92104 0.34539,3.43631 l -0.16667,2.16314 2.84147,2.19664 c 2.03755,1.57498 3.02841,2.14209 3.50012,1.9998 0.36191,-0.10916 0.67922,-0.21917 0.70485,-0.2429 0.0256,-0.0237 0.10316,-4.17238 0.17269,-9.22004 0.0695,-5.04766 0.0302,-9.17816 -0.0884,-9.17816 z"
     id="path981-0" /></mask><linearGradient
   inkscape:collect="always"
   xlink:href="#linearGradient1186"
   id="linearGradient1180"
   x1="-16.598711"
   y1="-41.300648"
   x2="84.659096"
   y2="-40.790768"
   gradientUnits="userSpaceOnUse"
   gradientTransform="translate(40.327888,72.559343)" /></defs>

<g
   id="g6"
   transform="translate(-17.359574,-3.2172523)">
		<g
   aria-label="open"
   id="text2"
   style="font-size:26.6667px;font-family:Montserrat-Regular;fill:#000000;fill-opacity:1"><path
     d="m 31.075064,83.835045 q -1.549481,0 -2.369795,1.119794 -0.807292,1.106772 -0.807292,3.203129 0,2.096356 0.807292,3.216149 0.820314,1.106773 2.369795,1.106773 1.523439,0 2.330732,-1.106773 0.807293,-1.119793 0.807293,-3.216149 0,-2.096357 -0.807293,-3.203129 -0.807293,-1.119794 -2.330732,-1.119794 z m 0,-3.333337 q 3.763025,0 5.872403,2.031252 2.122399,2.031253 2.122399,5.625008 0,3.593754 -2.122399,5.625007 -2.109378,2.031252 -5.872403,2.031252 -3.776047,0 -5.911466,-2.031252 -2.122398,-2.031253 -2.122398,-5.625007 0,-3.593755 2.122398,-5.625008 2.135419,-2.031252 5.911466,-2.031252 z"
     style="font-style:normal;font-variant:normal;font-weight:bold;font-stretch:normal;font-family:Montserrat-Regular;-inkscape-font-specification:'Montserrat-Regular Bold'"
     id="path851" /><path
     d="M 47.116751,93.327245 V 100.9835 H 42.455286 V 80.853271 h 4.661465 v 2.135419 q 0.963542,-1.276043 2.135419,-1.875002 1.171876,-0.61198 2.695316,-0.61198 2.695316,0 4.427089,2.14844 1.731773,2.135419 1.731773,5.50782 0,3.3724 -1.731773,5.52084 -1.731773,2.135419 -4.427089,2.135419 -1.52344,0 -2.695316,-0.598959 -1.171877,-0.61198 -2.135419,-1.888023 z m 3.098962,-9.440116 q -1.497398,0 -2.304691,1.106772 -0.794271,1.093751 -0.794271,3.164067 0,2.070315 0.794271,3.177087 0.807293,1.093751 2.304691,1.093751 1.497398,0 2.278648,-1.093751 0.794272,-1.093751 0.794272,-3.177087 0,-2.083336 -0.794272,-3.177088 -0.78125,-1.093751 -2.278648,-1.093751 z"
     style="font-style:normal;font-variant:normal;font-weight:bold;font-stretch:normal;font-family:Montserrat-Regular;-inkscape-font-specification:'Montserrat-Regular Bold'"
     id="path853" /><path
     d="m 76.101162,88.105884 v 1.328127 H 65.202711 q 0.169271,1.640627 1.184897,2.46094 1.015627,0.820314 2.838546,0.820314 1.471356,0 3.007816,-0.429688 1.549481,-0.442709 3.177087,-1.328127 v 3.593755 q -1.653648,0.625001 -3.307296,0.937501 -1.653648,0.325521 -3.307296,0.325521 -3.958338,0 -6.158861,-2.005211 -2.187503,-2.018231 -2.187503,-5.651048 0,-3.567713 2.14844,-5.611987 2.161461,-2.044273 5.937507,-2.044273 3.437505,0 5.494799,2.070315 2.070315,2.070315 2.070315,5.533861 z m -4.791673,-1.549481 q 0,-1.328127 -0.781251,-2.135419 -0.76823,-0.820314 -2.018231,-0.820314 -1.354169,0 -2.200524,0.76823 -0.846355,0.75521 -1.054689,2.187503 z"
     style="font-style:normal;font-variant:normal;font-weight:bold;font-stretch:normal;font-family:Montserrat-Regular;-inkscape-font-specification:'Montserrat-Regular Bold'"
     id="path855" /><path
     d="m 94.291289,86.556403 v 8.88022 h -4.687506 v -1.445315 -5.351569 q 0,-1.888023 -0.09115,-2.60417 -0.07813,-0.716147 -0.286459,-1.054689 -0.273438,-0.45573 -0.742189,-0.703126 -0.46875,-0.260417 -1.067709,-0.260417 -1.458335,0 -2.29167,1.132814 -0.833334,1.119793 -0.833334,3.111983 v 7.174489 H 79.629813 V 80.853271 h 4.661464 v 2.135419 q 1.054689,-1.276043 2.239586,-1.875002 1.184897,-0.61198 2.617191,-0.61198 2.526045,0 3.82813,1.549481 1.315105,1.549481 1.315105,4.505214 z"
     style="font-style:normal;font-variant:normal;font-weight:bold;font-stretch:normal;font-family:Montserrat-Regular;-inkscape-font-specification:'Montserrat-Regular Bold'"
     id="path857" /></g>




		<g
   aria-label="CFS"
   id="text4"
   style="font-size:33.3333px;font-family:Montserrat-Regular"><path
     d="m 116.90281,94.697508 q -1.72526,0.895182 -3.597,1.350911 -1.87174,0.455728 -3.90624,0.455728 -6.07096,0 -9.619136,-3.385413 -3.548174,-3.40169 -3.548174,-9.212231 0,-5.826817 3.548174,-9.212231 3.548176,-3.401689 9.619136,-3.401689 2.0345,0 3.90624,0.455729 1.87174,0.455728 3.597,1.35091 v 5.029292 q -1.74153,-1.18815 -3.43424,-1.741535 -1.6927,-0.553385 -3.56445,-0.553385 -3.35286,0 -5.27343,2.148436 -1.92057,2.148435 -1.92057,5.924473 0,3.759762 1.92057,5.908198 1.92057,2.148435 5.27343,2.148435 1.87175,0 3.56445,-0.553385 1.69271,-0.553385 3.43424,-1.741535 z"
     style="font-style:normal;font-variant:normal;font-weight:bold;font-stretch:normal;font-family:Montserrat-Regular;-inkscape-font-specification:'Montserrat-Regular Bold'"
     id="path860" /><path
     d="m 122.09487,71.732036 h 16.91079 v 4.736323 h -10.64452 v 4.524735 h 10.00975 v 4.736324 h -10.00975 v 10.302725 h -6.26627 z"
     style="font-style:normal;font-variant:normal;font-weight:bold;font-stretch:normal;font-family:Montserrat-Regular;-inkscape-font-specification:'Montserrat-Regular Bold'"
     id="path862" /><path
     d="m 161.77582,72.497009 v 5.143224 q -2.00195,-0.895181 -3.90625,-1.35091 -1.90429,-0.455729 -3.597,-0.455729 -2.24609,0 -3.32031,0.618489 -1.07422,0.618489 -1.07422,1.920571 0,0.976562 0.71615,1.529947 0.73242,0.537109 2.63671,0.927733 l 2.66927,0.537109 q 4.05273,0.813801 5.76172,2.473956 1.70898,1.660155 1.70898,4.720048 0,4.020178 -2.39258,5.989577 -2.3763,1.953123 -7.27538,1.953123 -2.3112,0 -4.63867,-0.439452 -2.32747,-0.439453 -4.65494,-1.302082 v -5.289709 q 2.32747,1.236978 4.49218,1.871743 2.18099,0.618489 4.19922,0.618489 2.05078,0 3.14127,-0.683593 1.09049,-0.683593 1.09049,-1.953123 0,-1.139322 -0.74869,-1.757811 -0.73243,-0.618489 -2.94597,-1.10677 l -2.42512,-0.537109 q -3.64583,-0.781249 -5.33854,-2.490232 -1.67643,-1.708982 -1.67643,-4.606115 0,-3.629554 2.34375,-5.582677 2.34375,-1.953123 6.73827,-1.953123 2.00195,0 4.11784,0.309244 2.11588,0.292969 4.37825,0.895182 z"
     style="font-style:normal;font-variant:normal;font-weight:bold;font-stretch:normal;font-family:Montserrat-Regular;-inkscape-font-specification:'Montserrat-Regular Bold'"
     id="path864" /></g>




	</g>





<path
   inkscape:connector-curvature="0"
   style="opacity:1;fill:url(#linearGradient1180);fill-opacity:1;fill-rule:nonzero;stroke:none;stroke-width:2.77773;stroke-miterlimit:4;stroke-dasharray:none;stroke-dashoffset:0;stroke-opacity:1"
   d="m 75.116566,4.452944 c 0.483744,-7.1e-4 1.347064,0.32308 1.897658,0.8062 0.603164,0.52925 1.086395,1.35036 1.214903,2.06472 0.190917,1.061209 0.748344,1.57957 5.305407,4.93355 4.55267,3.35074 5.24406,3.85713 5.63273,4.06661 0.50663,-0.37551 1.41878,-0.69753 1.9077,-0.56957 0.48893,0.12796 1.1796,0.2774 1.69082,1.26898 0.4409,1.22685 0.37548,1.78745 0.3715,1.98724 -0.003,0.13573 1.20181,1.01318 6.48819,4.5985 3.187556,2.16187 5.923036,3.98019 6.078526,4.04149 0.1555,0.0613 2.16789,-1.62253 4.47206,-3.74204 3.90875,-3.59552 4.6919,-4.09926 4.66883,-4.16713 -0.62888,-1.85052 -0.15482,-2.65244 0.16667,-3.16409 0.32149,-0.51165 1.10425,-1.15783 1.73903,-1.43441 0.89588,-0.39035 1.3946,-0.41909 2.22899,-0.13192 0.59122,0.20346 1.39755,0.72926 1.79324,1.16847 0.39569,0.43921 0.80322,1.33732 0.90565,1.99561 0.12008,0.77156 -0.003,1.57804 -0.3474,2.27203 -0.29362,0.59211 -0.9887,1.32222 -1.54624,1.62288 -0.57433,0.3097 -2.14347,0.41999 -3.1708,-0.0314 -0.75565,0.74987 -0.60789,0.57417 -4.49414,4.08546 -2.43068,2.19616 -3.51451,3.20408 -4.12666,3.88025 0.12075,0.21236 2.48068,3.50101 4.98011,7.01711 2.49942,3.5161 4.91485,6.64491 5.36766,6.95429 0.56569,0.38652 0.82332,0.87511 0.82332,1.56006 0,0.54827 -0.23373,1.2384 -0.51808,1.53493 -0.28436,0.29652 -0.93204,0.54026 -1.43981,0.54026 -0.50779,0 -1.07009,-0.19341 -1.25106,-0.42928 -0.18096,-0.23587 -0.43683,-0.79326 -0.56828,-1.23967 -0.13146,-0.4464 -2.16905,-3.5346 -4.52828,-6.86215 -2.35922,-3.32755 -4.73541,-6.75238 -4.97007,-7.01711 -0.52837,0.32654 -1.01241,0.80818 -5.48212,5.0885 -4.392476,4.20636 -5.088106,4.91327 -5.381716,5.24975 0.53535,1.1542 0.56149,1.75472 0.6667,2.35579 0.10521,0.60107 0.0228,1.6029 -0.18475,2.22386 l -0.37753,1.12869 3.21699,3.16409 c 1.991496,1.95939 3.491166,3.17036 3.939896,3.18084 0.39863,0.009 1.08721,0.18836 1.52816,0.39786 0.44095,0.20951 0.9658,0.75892 1.16671,1.21873 0.20091,0.45981 0.36547,1.14771 0.36547,1.53074 0,0.38302 -0.43293,1.14878 -0.96188,1.70036 -0.57983,0.60457 -1.30903,1.00304 -1.8354,1.00304 -0.52637,0 -1.25564,-0.39847 -1.83541,-1.00304 -0.52894,-0.55158 -0.961886,-1.36622 -0.961886,-1.81134 0,-0.58386 -0.91331,-1.69579 -3.28123,-3.98914 -2.83423,-2.74496 -3.02989,-2.90638 -3.2692,-3.06357 -0.35427,0.19771 -1.96882,0.60308 -2.78323,0.60308 -0.81441,0 -1.87814,-0.15726 -2.36354,-0.34971 -0.4854,-0.19244 -1.27067,-0.78411 -1.74705,-1.31505 l -0.8675,-0.96535 -3.783265,1.08262 c -2.080973,0.59578 -5.300091,1.5159 -7.154872,2.04377 -2.382715,0.67813 -3.373614,1.1122 -3.373614,1.47839 0,0.28507 -0.297919,1.02209 -0.662675,1.63754 -0.364767,0.61545 -1.199145,1.38285 -1.853479,1.70664 -0.769087,0.38058 -1.592539,0.5208 -2.331408,0.39577 -0.628631,-0.10636 -1.497057,-0.43443 -1.92778,-0.72872 -0.430722,-0.29431 -1.040465,-0.94564 -1.355469,-1.44698 -0.315015,-0.50134 -0.5836,-1.58373 -0.598416,-2.40605 -0.02663,-1.47554 -0.0656,-1.52356 -2.919783,-3.69178 l -2.891669,-2.19665 -1.365509,0.74757 c -1.02087,0.55968 -1.93911,0.74967 -3.636676,0.74967 h -2.271165 l -2.417757,3.77136 c -1.946256,3.03618 -2.417756,4.02544 -2.417756,5.07594 0,0.92793 -0.232966,1.5475 -0.807259,2.14638 -0.497263,0.51854 -1.185555,0.84181 -1.791228,0.84181 -0.560536,0 -1.37295,-0.34904 -1.889626,-0.81249 -0.690453,-0.61931 -0.907662,-1.12025 -0.907662,-2.10241 0,-0.98216 0.217209,-1.48519 0.907662,-2.10451 0.498673,-0.44729 1.157334,-0.81675 1.463908,-0.82086 0.343516,-0.005 1.527227,-1.5411 3.086456,-4.00589 l 2.53021,-3.99961 -0.60444,-0.88577 c -0.33239,-0.48678 -0.774639,-1.54719 -0.98397,-2.35789 -0.209342,-0.81069 -0.336048,-1.80195 -0.281134,-2.20083 0.0877,-0.6372 -0.553568,-1.00911 -5.289346,-3.07195 -4.105419,-1.78825 -5.496201,-2.25651 -5.831531,-1.9663 -0.242151,0.20957 -0.962503,0.39577 -1.600459,0.41462 -0.696552,0.0206 -1.520246,-0.24689 -2.064332,-0.66799 -0.498303,-0.38569 -1.032121,-1.22552 -1.184781,-1.86788 -0.170487,-0.71734 -0.143688,-1.52558 0.06828,-2.09404 0.189827,-0.50905 0.740445,-1.19479 1.222935,-1.52446 0.482479,-0.32966 1.408714,-0.58465 2.060315,-0.56539 0.885452,0.0262 1.41552,0.30441 2.098468,1.10147 0.50259,0.58655 0.913688,1.27709 0.913688,1.53492 0,0.2795 2.078244,1.38737 5.144761,2.7411 2.828777,1.24877 5.322958,2.26993 5.542365,2.26993 0.219397,0 0.679426,-0.33096 1.024133,-0.73501 0.344718,-0.40404 1.220028,-1.01871 1.943845,-1.36531 0.723817,-0.3466 1.908807,-0.62606 2.632624,-0.62193 0.723816,0.004 1.906798,0.22784 2.630614,0.49839 l 1.317316,0.49209 3.694911,-3.85093 c 3.660848,-3.81553 3.096715,-3.29092 3.861584,-4.0017 l -0.576326,-2.46887 -6.548426,-3.41746 c -6.172949,-3.22162 -6.589376,-3.38767 -7.265323,-2.89396 -0.394346,0.28803 -1.289162,0.52351 -1.990031,0.52351 -0.700868,0 -1.696354,-0.25889 -2.210922,-0.57586 -0.514568,-0.31697 -1.188366,-1.06719 -1.498045,-1.66685 -0.403219,-0.78077 -0.508271,-1.51747 -0.369491,-2.5966 0.140599,-1.09334 0.469829,-1.76444 1.198838,-2.44374 0.552641,-0.51496 1.404199,-1.0409 1.891634,-1.16847 0.506384,-0.13254 1.445888,-0.0242 2.192849,0.25128 0.719005,0.26514 1.594646,0.88715 1.945852,1.38206 0.351216,0.49492 0.736571,1.40229 0.857461,2.01865 0.206915,1.055 0.596529,1.32366 6.642806,4.57756 l 6.925949,3.90538 1.008068,-0.82505 c 0.653522,-0.32339 0.821321,-0.45193 1.694839,-0.41252 0.147744,0.007 0.969449,-1.94466 2.568364,-5.44659 1.270793,-2.78329 2.482065,-5.59282 2.473984,-5.87586 -0.402826,-0.79429 -0.371678,-0.7261 -0.463871,-1.461641 -0.116108,-0.610849 -0.05736,-1.366929 0.05823,-1.846939 0.115533,-0.48001 0.687881,-1.17666 1.27113,-1.54749 0.583248,-0.37084 1.438011,-0.60447 1.921755,-0.60518 z m 1.967941,6.18369 c -1.036922,0.66381 -1.716406,0.47942 -2.020151,0.55282 -0.0652,0.0158 -0.551662,1.26234 -2.465952,5.56385 -1.897263,4.26327 -2.286407,5.41356 -1.998062,5.89681 0.197024,0.33022 0.433929,0.59756 0.526123,0.59261 0.09222,-0.005 3.618412,-0.9166 7.837627,-2.02493 4.219222,-1.10834 7.764872,-2.11032 7.877782,-2.22806 -0.0306,-0.20502 -0.0324,-0.20903 0.0181,-0.51304 -0.26066,-0.2666 -7.244093,-5.92146 -9.775446,-7.84006 z m 11.381927,11.48787 c -0.23614,-0.0945 -4.16651,0.7959 -8.733238,1.97887 -4.56673,1.18296 -8.388666,2.23938 -8.494278,2.3495 -0.105602,0.11013 0.291866,0.63133 0.883566,1.15801 0.59169,0.52667 4.193734,3.67341 8.004301,6.99198 6.626439,5.77088 6.967359,6.01715 7.847669,5.67065 l 0.92172,-0.36227 v -8.80751 c 0,-6.92833 -0.0919,-8.84408 -0.42974,-8.97923 z m 3.63668,0.10471 c -0.13572,-0.003 -0.24699,3.99457 -0.24699,8.88499 0,6.80593 0.0969,8.92494 0.41166,9.03786 0.22619,0.0811 0.87091,-0.25341 1.43378,-0.74339 0.56286,-0.48998 3.03954,-2.81576 5.5022,-5.17017 l 4.476066,-4.28021 -5.664856,-3.8614 c -3.11602,-2.1237 -5.77615,-3.86422 -5.91186,-3.86768 z m -23.167491,7.09459 c -0.351616,0.1407 -0.439774,2.003 -0.439774,9.29333 v 9.11533 l 1.066303,0.92557 c 0.585469,0.50969 1.214053,0.87186 1.39764,0.80411 0.183586,-0.0678 3.28097,-0.96797 6.883779,-2.0019 3.602819,-1.03393 6.934473,-1.99543 6.956073,-2.20083 0.0655,-0.62289 0.274,-1.72088 0.68075,-2.09194 -0.68599,-0.52948 -0.79074,-0.61861 -8.237246,-7.13438 -4.476726,-3.91718 -8.057356,-6.8094 -8.307525,-6.70929 z m -3.433857,0.1026 c -0.118546,0 -1.927248,1.70381 -4.018215,3.78602 l -3.80134,3.78602 0.510058,1.27317 c 0.357703,0.89273 0.462038,1.92104 0.345394,3.43631 l -0.166672,2.16314 2.841466,2.19664 c 2.037555,1.57499 3.02841,2.1421 3.500124,1.99981 0.361909,-0.10917 0.679213,-0.21918 0.704845,-0.24291 0.0256,-0.0237 0.103163,-4.17238 0.172697,-9.22004 0.0695,-5.04766 0.03019,-9.17816 -0.08836,-9.17816 z"
   id="rect1211"
   sodipodi:nodetypes="sssscsccssscssssccscscsssssssscscsccccssscsssscssccccscscccccccsccscscsccccccccsccscsccscscscccccccssssssscssccccscccsssscsscsccsscscssccsccscsccccsscccsscsssccccccsscss" /></svg>
